P3
5 4
255
128 255 0 153 255 51 178 255 102 204 255 153 229 255 204 
255 255 0 255 255 51 255 255 102 255 255 153 255 255 204
255 128 0 255 153 51 255 178 102 255 204 153 255 229 204 
255  0  0 255 51  51 255 102 102 255 153 153 255 204 204 
